<svg width="16" height="17" viewBox="0 0 16 17" fill="none" xmlns="http://www.w3.org/2000/svg">
<path d="M7.3737 12.4582H8.62366V9.12491H11.957V7.87495H8.62366V4.54162H7.3737V7.87495H4.04037V9.12491H7.3737V12.4582ZM8.00007 16.4166C6.90513 16.4166 5.87593 16.2088 4.91249 15.7932C3.94903 15.3777 3.11096 14.8137 2.39828 14.1014C1.68559 13.389 1.12137 12.5513 0.705636 11.5883C0.289899 10.6252 0.0820312 9.59627 0.0820312 8.50133C0.0820312 7.40638 0.289809 6.37719 0.705365 5.41374C1.12092 4.45028 1.68488 3.61221 2.39724 2.89953C3.10961 2.18684 3.94732 1.62262 4.91034 1.20689C5.87336 0.791151 6.90234 0.583282 7.99728 0.583282C9.09223 0.583282 10.1214 0.791061 11.0849 1.20662C12.0483 1.62217 12.8864 2.18613 13.5991 2.89849C14.3118 3.61087 14.876 4.44857 15.2917 5.4116C15.7075 6.37461 15.9153 7.40359 15.9153 8.49853C15.9153 9.59348 15.7075 10.6227 15.292 11.5861C14.8764 12.5496 14.3125 13.3876 13.6001 14.1003C12.8877 14.813 12.05 15.3772 11.087 15.793C10.124 16.2087 9.09502 16.4166 8.00007 16.4166Z" fill="#77797B"/>
</svg>
