<svg width="16" height="16" viewBox="0 0 16 16" fill="none" xmlns="http://www.w3.org/2000/svg">
<path d="M7.37419 11.9582H8.62415V8.62488H11.9575V7.37492H8.62415V4.04159H7.37419V7.37492H4.04085V8.62488H7.37419V11.9582ZM8.00056 15.9165C6.90562 15.9165 5.87642 15.7088 4.91298 15.2932C3.94952 14.8777 3.11145 14.3137 2.39877 13.6013C1.68608 12.889 1.12186 12.0513 0.706124 11.0882C0.290388 10.1252 0.0825195 9.09624 0.0825195 8.00129C0.0825195 6.90635 0.290297 5.87716 0.705853 4.91371C1.12141 3.95025 1.68537 3.11218 2.39773 2.3995C3.1101 1.68681 3.9478 1.12259 4.91083 0.706857C5.87385 0.291121 6.90283 0.083252 7.99777 0.083252C9.09272 0.083252 10.1219 0.291031 11.0854 0.706586C12.0488 1.12214 12.8869 1.6861 13.5996 2.39846C14.3123 3.11084 14.8765 3.94854 15.2922 4.91157C15.7079 5.87458 15.9158 6.90356 15.9158 7.9985C15.9158 9.09345 15.708 10.1226 15.2925 11.0861C14.8769 12.0495 14.313 12.8876 13.6006 13.6003C12.8882 14.313 12.0505 14.8772 11.0875 15.2929C10.1245 15.7087 9.09551 15.9165 8.00056 15.9165Z" fill="#202025"/>
</svg>
