<svg width="16" height="16" viewBox="0 0 16 16" fill="none" xmlns="http://www.w3.org/2000/svg">
<path d="M7.3737 11.958H8.62366V8.62463H11.957V7.37468H8.62366V4.04134H7.3737V7.37468H4.04037V8.62463H7.3737V11.958ZM8.00007 15.9163C6.90513 15.9163 5.87593 15.7085 4.91249 15.293C3.94903 14.8774 3.11096 14.3135 2.39828 13.6011C1.68559 12.8887 1.12137 12.051 0.705636 11.088C0.289899 10.125 0.0820312 9.09599 0.0820312 8.00105C0.0820312 6.90611 0.289809 5.87691 0.705365 4.91347C1.12092 3.95001 1.68488 3.11194 2.39724 2.39926C3.10961 1.68656 3.94732 1.12235 4.91034 0.706613C5.87336 0.290877 6.90234 0.0830078 7.99728 0.0830078C9.09223 0.0830078 10.1214 0.290787 11.0849 0.706342C12.0483 1.1219 12.8864 1.68586 13.5991 2.39822C14.3118 3.11059 14.876 3.94829 15.2917 4.91132C15.7075 5.87434 15.9153 6.90331 15.9153 7.99826C15.9153 9.0932 15.7075 10.1224 15.292 11.0858C14.8764 12.0493 14.3125 12.8874 13.6001 13.6001C12.8877 14.3127 12.05 14.877 11.087 15.2927C10.124 15.7084 9.09502 15.9163 8.00007 15.9163Z" fill="#202025"/>
</svg>
