<svg width="20" height="20" viewBox="0 0 20 20" fill="none" xmlns="http://www.w3.org/2000/svg">
<path d="M9.39167 15.1667C7.925 15.0903 6.6875 14.525 5.67917 13.4708C4.67083 12.4167 4.16667 11.1486 4.16667 9.66667C4.16667 8.13889 4.70139 6.84028 5.77083 5.77083C6.84028 4.70139 8.13889 4.16667 9.66667 4.16667C11.1486 4.16667 12.4167 4.67083 13.4708 5.67917C14.525 6.6875 15.0903 7.925 15.1667 9.39167L13.2417 8.81875C13.0431 7.99375 12.6153 7.31771 11.9583 6.79063C11.3014 6.26354 10.5375 6 9.66667 6C8.65833 6 7.79514 6.35903 7.07708 7.07708C6.35903 7.79514 6 8.65833 6 9.66667C6 10.5375 6.26354 11.3014 6.79063 11.9583C7.31771 12.6153 7.99375 13.0431 8.81875 13.2417L9.39167 15.1667ZM10.4917 18.7875C10.3542 18.8181 10.2167 18.8333 10.0792 18.8333H9.66667C8.39861 18.8333 7.20694 18.5927 6.09167 18.1115C4.97639 17.6302 4.00625 16.9771 3.18125 16.1521C2.35625 15.3271 1.70313 14.3569 1.22188 13.2417C0.740625 12.1264 0.5 10.9347 0.5 9.66667C0.5 8.39861 0.740625 7.20694 1.22188 6.09167C1.70313 4.97639 2.35625 4.00625 3.18125 3.18125C4.00625 2.35625 4.97639 1.70313 6.09167 1.22188C7.20694 0.740625 8.39861 0.5 9.66667 0.5C10.9347 0.5 12.1264 0.740625 13.2417 1.22188C14.3569 1.70313 15.3271 2.35625 16.1521 3.18125C16.9771 4.00625 17.6302 4.97639 18.1115 6.09167C18.5927 7.20694 18.8333 8.39861 18.8333 9.66667V10.0792C18.8333 10.2167 18.8181 10.3542 18.7875 10.4917L17 9.94167V9.66667C17 7.61944 16.2896 5.88542 14.8688 4.46458C13.4479 3.04375 11.7139 2.33333 9.66667 2.33333C7.61944 2.33333 5.88542 3.04375 4.46458 4.46458C3.04375 5.88542 2.33333 7.61944 2.33333 9.66667C2.33333 11.7139 3.04375 13.4479 4.46458 14.8688C5.88542 16.2896 7.61944 17 9.66667 17H9.94167L10.4917 18.7875ZM17.4813 19.2917L13.5625 15.3729L12.4167 18.8333L9.66667 9.66667L18.8333 12.4167L15.3729 13.5625L19.2917 17.4813L17.4813 19.2917Z" fill="#202025"/>
</svg>
