<svg width="20" height="22" viewBox="0 0 20 22" fill="none" xmlns="http://www.w3.org/2000/svg">
<path d="M8.99998 3.34613C9.21664 3.34613 9.39581 3.27529 9.53748 3.13363C9.67914 2.99196 9.74998 2.81279 9.74998 2.59613C9.74998 2.37946 9.67914 2.20029 9.53748 2.05863C9.39581 1.91696 9.21664 1.84613 8.99998 1.84613C8.78331 1.84613 8.60414 1.91696 8.46248 2.05863C8.32081 2.20029 8.24998 2.37946 8.24998 2.59613C8.24998 2.81279 8.32081 2.99196 8.46248 3.13363C8.60414 3.27529 8.78331 3.34613 8.99998 3.34613ZM15 21.5576C13.7513 21.5576 12.6891 21.1198 11.8135 20.2442C10.9378 19.3685 10.5 18.3064 10.5 17.0577C10.5 15.809 10.9378 14.7468 11.8135 13.8712C12.6891 12.9955 13.7513 12.5577 15 12.5577C16.2487 12.5577 17.3109 12.9955 18.1865 13.8712C19.0621 14.7468 19.5 15.809 19.5 17.0577C19.5 18.3064 19.0621 19.3685 18.1865 20.2442C17.3109 21.1198 16.2487 21.5576 15 21.5576ZM14.5577 20H15.4423V17.5H17.9423V16.6154H15.4423V14.1154H14.5577V16.6154H12.0577V17.5H14.5577V20ZM4.25 7.86535H13.75V6.36538H4.25V7.86535ZM8.59805 19.5H2.3077C1.81058 19.5 1.38503 19.3229 1.03102 18.9689C0.677008 18.6149 0.5 18.1894 0.5 17.6923V4.3077C0.5 3.81058 0.677008 3.38503 1.03102 3.03103C1.38503 2.67701 1.81058 2.5 2.3077 2.5H6.7577C6.82052 1.94488 7.06282 1.47278 7.4846 1.08368C7.9064 0.694559 8.41313 0.5 9.00478 0.5C9.59644 0.5 10.1032 0.694559 10.525 1.08368C10.9468 1.47278 11.1859 1.94488 11.2423 2.5H15.6923C16.1894 2.5 16.6149 2.67701 16.9689 3.03103C17.3229 3.38503 17.5 3.81058 17.5 4.3077V10.6327C17.0935 10.4634 16.6846 10.3349 16.273 10.2471C15.8615 10.1593 15.4371 10.1154 15 10.1154C14.7397 10.1154 14.4903 10.1308 14.2519 10.1615C14.0134 10.1923 13.7756 10.2404 13.5384 10.3058V10.25H4.25V11.75H10.6058C10.2032 12.0653 9.84583 12.4234 9.53365 12.824C9.22147 13.2247 8.95768 13.6615 8.7423 14.1346H4.25V15.6346H8.2673C8.21473 15.8589 8.17627 16.0823 8.1519 16.3048C8.12755 16.5272 8.11538 16.7589 8.11538 17C8.11538 17.4282 8.14935 17.8525 8.2173 18.273C8.28523 18.6935 8.41215 19.1025 8.59805 19.5Z" fill="#FFF"/>
</svg>
