<svg width="18" height="17" viewBox="0 0 18 17" fill="none" xmlns="http://www.w3.org/2000/svg">
<path fill-rule="evenodd" clip-rule="evenodd" d="M17.1797 8.81445C17.1797 13.3314 13.518 16.9932 9.00098 16.9932C4.484 16.9932 0.822266 13.3314 0.822266 8.81445C0.822266 4.29748 4.484 0.635742 9.00098 0.635742C13.518 0.635742 17.1797 4.29748 17.1797 8.81445ZM9.00098 4.86397C9.33975 4.86397 9.61438 5.1386 9.61438 5.47737V9.28865C9.61438 9.62742 9.33975 9.90205 9.00098 9.90205C8.6622 9.90205 8.38757 9.62742 8.38757 9.28865V5.47737C8.38757 5.1386 8.6622 4.86397 9.00098 4.86397ZM9.00098 12.1512C9.33975 12.1512 9.61438 11.8765 9.61438 11.5378C9.61438 11.199 9.33975 10.9244 9.00098 10.9244C8.6622 10.9244 8.38757 11.199 8.38757 11.5378C8.38757 11.8765 8.6622 12.1512 9.00098 12.1512Z" fill="#010101"/>
</svg>
