<svg width="20" height="21" viewBox="0 0 20 21" fill="none" xmlns="http://www.w3.org/2000/svg">
<path d="M19.0931 14.8607C19.0931 15.723 18.3392 16.423 17.4105 16.423H2.81346C1.88476 16.423 1.13086 15.723 1.13086 14.8607C1.13086 13.9984 1.88476 13.2984 2.81346 13.2984H3.37066V8.08388C3.37066 4.63461 6.38623 1.82446 10.112 1.82446C11.9694 1.82446 13.652 2.52446 14.8757 3.66069C16.0994 4.78678 16.8533 6.3491 16.8533 8.08388V13.2984H17.4105C18.3392 13.2984 19.0931 13.9984 19.0931 14.8607Z" stroke="#FFFFFF" stroke-width="1.2" stroke-linecap="round" stroke-linejoin="round"/>
<path d="M10.1112 1.83484V0.789917" stroke="#FFFFFF" stroke-width="1.2" stroke-linecap="round" stroke-linejoin="round"/>
<path d="M13.4784 16.4331C13.4784 18.1679 11.9706 19.5577 10.1132 19.5577C8.25581 19.5577 6.74805 18.1577 6.74805 16.4331H13.4784Z" stroke="#FFFFFF" stroke-width="1.2" stroke-linecap="round" stroke-linejoin="round"/>
</svg>
