<svg width="16" height="16" viewBox="0 0 16 16" fill="none" xmlns="http://www.w3.org/2000/svg">
<path d="M6.81648 11.545L12.419 5.94246L11.5408 5.06427L6.81648 9.78862L4.44148 7.41362L3.56329 8.29181L6.81648 11.545ZM8.00056 15.9168C6.90562 15.9168 5.87642 15.709 4.91298 15.2935C3.94952 14.8779 3.11145 14.3139 2.39877 13.6016C1.68608 12.8892 1.12186 12.0515 0.706124 11.0885C0.290388 10.1255 0.0825195 9.09648 0.0825195 8.00154C0.0825195 6.90659 0.290297 5.8774 0.705853 4.91395C1.12141 3.9505 1.68537 3.11243 2.39773 2.39975C3.1101 1.68705 3.9478 1.12284 4.91083 0.707101C5.87385 0.291365 6.90283 0.0834961 7.99777 0.0834961C9.09272 0.0834961 10.1219 0.291275 11.0854 0.70683C12.0488 1.12239 12.8869 1.68634 13.5996 2.39871C14.3123 3.11108 14.8765 3.94878 15.2922 4.91181C15.7079 5.87482 15.9158 6.9038 15.9158 7.99875C15.9158 9.09369 15.708 10.1229 15.2925 11.0863C14.8769 12.0498 14.313 12.8879 13.6006 13.6005C12.8882 14.3132 12.0505 14.8774 11.0875 15.2932C10.1245 15.7089 9.09551 15.9168 8.00056 15.9168Z" fill="#18E21C"/>
</svg>
