<svg width="16" height="18" viewBox="0 0 16 18" fill="none" xmlns="http://www.w3.org/2000/svg">
<path d="M13.7126 5.03305L14.5043 4.24138C14.746 3.99971 14.746 3.59971 14.5043 3.35804C14.2626 3.11638 13.8626 3.11638 13.621 3.35804L12.8293 4.14971C11.671 3.17471 10.221 2.54138 8.6293 2.40805V1.91638H8.86263C9.2043 1.91638 9.48763 1.63305 9.48763 1.29138C9.48763 0.949715 9.2043 0.666382 8.86263 0.666382H7.14597C6.8043 0.666382 6.52097 0.949715 6.52097 1.29138C6.52097 1.63305 6.8043 1.91638 7.14597 1.91638H7.3793V2.40805C5.78763 2.54138 4.33762 3.17471 3.17929 4.14971L2.38764 3.35804C2.14597 3.11638 1.74597 3.11638 1.50431 3.35804C1.26264 3.59971 1.26264 3.99971 1.50431 4.24138L2.29596 5.03305C1.19596 6.34139 0.529297 8.01638 0.529297 9.85805C0.529297 13.9747 3.8793 17.333 8.0043 17.333C12.1293 17.333 15.4793 13.9747 15.4793 9.85805C15.4793 8.01638 14.8126 6.34139 13.7126 5.03305ZM10.5876 8.15805L9.39598 9.34971C9.44598 9.50805 9.48763 9.67471 9.48763 9.85805C9.48763 10.6747 8.82097 11.3414 8.0043 11.3414C7.18763 11.3414 6.52097 10.6747 6.52097 9.85805C6.52097 9.04138 7.18763 8.37471 8.0043 8.37471C8.1793 8.37471 8.3543 8.40805 8.5043 8.46638L9.70431 7.27471C9.94597 7.02471 10.346 7.02471 10.5876 7.27471C10.8293 7.51638 10.8293 7.91639 10.5876 8.15805Z" fill="#30A5F3"/>
</svg>
