<svg width="22" height="22" viewBox="0 0 22 22" fill="none" xmlns="http://www.w3.org/2000/svg">
<path fill-rule="evenodd" clip-rule="evenodd" d="M18.2721 18.1288C14.2809 22.1961 7.67725 22.1881 3.5225 18.111C-0.632244 14.0339 -0.764816 7.43164 3.2264 3.3644C7.21761 -0.702846 13.8212 -0.694874 17.976 3.3822C22.1307 7.45928 22.2633 14.0616 18.2721 18.1288ZM13.1929 8.04942C13.5069 8.35279 13.5207 8.84795 13.2238 9.15539L11.822 10.6071L13.2822 12.0623C13.5914 12.3705 13.5975 12.8656 13.2957 13.1682C12.9939 13.4709 12.4986 13.4664 12.1893 13.1582L10.7467 11.7206L9.36183 13.1548C9.06495 13.4622 8.56977 13.4655 8.25582 13.1621C7.94187 12.8588 7.92803 12.3636 8.22491 12.0562L9.62673 10.6045L8.16652 9.14931C7.85728 8.84114 7.85123 8.34599 8.15302 8.04336C8.4548 7.74073 8.95014 7.74523 9.25938 8.0534L10.702 9.49099L12.0869 8.05679C12.3838 7.74935 12.879 7.74605 13.1929 8.04942Z" fill="#E14D4D"/>
</svg>
