<svg width="20" height="16" viewBox="0 0 20 16" fill="none" xmlns="http://www.w3.org/2000/svg">
<path d="M6.8403 7.5898C8.9203 7.5898 10.6103 5.8998 10.6103 3.8198C10.6103 1.7398 8.9203 0.0498047 6.8403 0.0498047C4.7603 0.0498047 3.07031 1.7398 3.07031 3.8198C3.07031 5.8998 4.7603 7.5898 6.8403 7.5898Z" fill="white"/>
<path d="M14.16 13.4794V15.1994C14.16 15.6094 13.83 15.9494 13.41 15.9494H0.75C0.34 15.9494 0 15.6094 0 15.1994V13.4794C0 11.0694 1.96 9.10938 4.37 9.10938H9.78999C10.28 9.10938 10.75 9.18937 11.19 9.34937C11.19 9.34937 11.19 9.33937 11.2 9.34937C12.92 9.92937 14.16 11.5594 14.16 13.4794Z" fill="white"/>
<path d="M14.16 13.4794V15.1994C14.16 15.6094 13.83 15.9494 13.41 15.9494H0.75C0.34 15.9494 0 15.6094 0 15.1994V13.4794C0 11.0694 1.96 9.10938 4.37 9.10938H9.78999C10.28 9.10938 10.75 9.18937 11.19 9.34937C11.19 9.34937 11.19 9.33937 11.2 9.34937C12.92 9.92937 14.16 11.5594 14.16 13.4794Z" fill="white"/>
<path d="M19.9991 12.6195V14.0294C19.9991 14.3594 19.7291 14.6294 19.3991 14.6294H15.6591V13.4795C15.6591 12.4695 15.3991 11.5095 14.9491 10.6795C14.7591 10.3395 14.5491 10.0195 14.3091 9.72945C14.1391 9.53945 13.9691 9.34945 13.7891 9.18945H16.5691C16.6791 9.18945 16.7791 9.18945 16.8791 9.20945C17.0091 9.21945 17.1391 9.23945 17.2691 9.26945C18.0291 9.42945 18.6891 9.84945 19.1791 10.4095C19.2591 10.4995 19.3391 10.5994 19.4091 10.7094C19.4191 10.7094 19.4191 10.7095 19.4091 10.7195C19.5991 10.9995 19.7491 11.2994 19.8491 11.6294C19.8791 11.7394 19.9091 11.8494 19.9291 11.9594C19.9791 12.1694 19.9991 12.3895 19.9991 12.6195Z" fill="white"/>
<path d="M14.3806 7.44972C16.032 7.44972 17.3706 6.11106 17.3706 4.45972C17.3706 2.80839 16.032 1.46973 14.3806 1.46973C12.7293 1.46973 11.3906 2.80839 11.3906 4.45972C11.3906 6.11106 12.7293 7.44972 14.3806 7.44972Z" fill="white"/>
</svg>
