<svg width="16" height="17" viewBox="0 0 16 17" fill="none" xmlns="http://www.w3.org/2000/svg">
<path d="M7.29167 12.3748H8.54163V9.04151H11.875V7.79155H8.54163V4.45821H7.29167V7.79155H3.95833V9.04151H7.29167V12.3748ZM7.91804 16.3332C6.8231 16.3332 5.7939 16.1254 4.83046 15.7098C3.867 15.2943 3.02893 14.7303 2.31625 14.018C1.60356 13.3056 1.03934 12.4679 0.623604 11.5049C0.207868 10.5418 0 9.51287 0 8.41792C0 7.32298 0.207778 6.29378 0.623334 5.33034C1.03889 4.36688 1.60285 3.52881 2.31521 2.81613C3.02758 2.10344 3.86529 1.53922 4.82831 1.12348C5.79133 0.707747 6.82031 0.499878 7.91525 0.499878C9.0102 0.499878 10.0394 0.707657 11.0028 1.12321C11.9663 1.53877 12.8044 2.10273 13.517 2.81509C14.2297 3.52746 14.794 4.36516 15.2097 5.32819C15.6254 6.29121 15.8333 7.32019 15.8333 8.41513C15.8333 9.51008 15.6255 10.5393 15.21 11.5027C14.7944 12.4662 14.2304 13.3042 13.5181 14.0169C12.8057 14.7296 11.968 15.2938 11.005 15.7096C10.042 16.1253 9.01299 16.3332 7.91804 16.3332Z" fill="#000"/>
</svg>
