<svg width="18" height="20" viewBox="0 0 18 20" fill="none" xmlns="http://www.w3.org/2000/svg">
<path d="M0.869141 0C0.459141 0 0.119141 0.34 0.119141 0.75V19.25C0.119141 19.66 0.459141 20 0.869141 20C1.27914 20 1.61914 19.66 1.61914 19.25V0.75C1.61914 0.34 1.27914 0 0.869141 0Z" fill="white"/>
<path d="M3.81836 9.28979H9.98836C10.9484 9.28979 11.7384 8.49979 11.7384 7.53979V3.7998C11.7384 2.8398 10.9484 2.0498 9.98836 2.0498H3.81836C3.40836 2.0498 3.06836 2.3898 3.06836 2.7998V8.53979C3.06836 8.94979 3.39836 9.28979 3.81836 9.28979Z" fill="white"/>
<path d="M16.1286 10.6504H3.80859C3.39859 10.6504 3.05859 10.9904 3.05859 11.4004V17.1404C3.05859 17.5504 3.39859 17.8904 3.80859 17.8904H16.1286C17.0886 17.8904 17.8786 17.1004 17.8786 16.1404V12.4004C17.8786 11.4404 17.0986 10.6504 16.1286 10.6504Z" fill="white"/>
</svg>
