<svg width="18" height="17" viewBox="0 0 18 17" fill="none" xmlns="http://www.w3.org/2000/svg">
<path fill-rule="evenodd" clip-rule="evenodd" d="M17.1797 8.31445C17.1797 12.8314 13.518 16.4932 9.00098 16.4932C4.484 16.4932 0.822266 12.8314 0.822266 8.31445C0.822266 3.79748 4.484 0.135742 9.00098 0.135742C13.518 0.135742 17.1797 3.79748 17.1797 8.31445ZM9.00098 4.36397C9.33975 4.36397 9.61438 4.6386 9.61438 4.97737V8.78865C9.61438 9.12742 9.33975 9.40205 9.00098 9.40205C8.6622 9.40205 8.38757 9.12742 8.38757 8.78865V4.97737C8.38757 4.6386 8.6622 4.36397 9.00098 4.36397ZM9.00098 11.6512C9.33975 11.6512 9.61438 11.3765 9.61438 11.0378C9.61438 10.699 9.33975 10.4244 9.00098 10.4244C8.6622 10.4244 8.38757 10.699 8.38757 11.0378C8.38757 11.3765 8.6622 11.6512 9.00098 11.6512Z" fill="#010101"/>
</svg>
