<svg width="16" height="17" viewBox="0 0 16 17" fill="none" xmlns="http://www.w3.org/2000/svg">
<path d="M14.6673 8.50063C14.6673 8.77396 14.4406 9.00063 14.1673 9.00063H6.36731C6.14731 9.78063 5.43397 10.3606 4.57397 10.3606C3.72064 10.3606 3.00066 9.78063 2.78066 9.00063H1.83398C1.56065 9.00063 1.33398 8.77396 1.33398 8.50063C1.33398 8.22729 1.56065 8.00063 1.83398 8.00063H2.78066C3.00066 7.22063 3.72064 6.64062 4.57397 6.64062C5.43397 6.64062 6.14731 7.22063 6.36731 8.00063H14.1673C14.4406 8.00063 14.6673 8.22729 14.6673 8.50063Z" fill="black"/>
<path d="M14.6673 13.2663C14.6673 13.5463 14.4406 13.7663 14.1673 13.7663H13.2206C13.0006 14.5529 12.2807 15.1263 11.4273 15.1263C10.574 15.1263 9.85399 14.5529 9.63399 13.7663H1.83398C1.56065 13.7663 1.33398 13.5463 1.33398 13.2663C1.33398 12.9929 1.56065 12.7663 1.83398 12.7663H9.63399C9.85399 11.9863 10.574 11.4062 11.4273 11.4062C12.2807 11.4062 13.0006 11.9863 13.2206 12.7663H14.1673C14.4406 12.7663 14.6673 12.9929 14.6673 13.2663Z" fill="black"/>
<path d="M14.6673 3.73305C14.6673 4.00638 14.4406 4.23305 14.1673 4.23305H13.2206C13.0006 5.01305 12.2807 5.59305 11.4273 5.59305C10.574 5.59305 9.85399 5.01305 9.63399 4.23305H1.83398C1.56065 4.23305 1.33398 4.00638 1.33398 3.73305C1.33398 3.45305 1.56065 3.23305 1.83398 3.23305H9.63399C9.85399 2.44638 10.574 1.87305 11.4273 1.87305C12.2807 1.87305 13.0006 2.44638 13.2206 3.23305H14.1673C14.4406 3.23305 14.6673 3.45305 14.6673 3.73305Z" fill="black"/>
</svg>
