<svg width="19" height="19" viewBox="0 0 19 19" fill="none" xmlns="http://www.w3.org/2000/svg">
<path d="M9.48898 15.1173C9.77451 15.1173 10.0157 15.0187 10.2125 14.8216C10.4093 14.6244 10.5077 14.3831 10.5077 14.0975C10.5077 13.812 10.4091 13.5708 10.2119 13.3741C10.0148 13.1773 9.77343 13.0789 9.4879 13.0789C9.20237 13.0789 8.96121 13.1774 8.76443 13.3746C8.56763 13.5717 8.46922 13.8131 8.46922 14.0986C8.46922 14.3841 8.5678 14.6253 8.76495 14.8221C8.9621 15.0189 9.20344 15.1173 9.48898 15.1173ZM8.78075 11.5365H10.1884C10.2012 11.0442 10.2734 10.651 10.4048 10.3567C10.5362 10.0625 10.8551 9.67245 11.3615 9.18655C11.8012 8.74681 12.1381 8.34071 12.3721 7.96828C12.606 7.59585 12.723 7.15602 12.723 6.6488C12.723 5.78809 12.4137 5.11574 11.7952 4.63175C11.1766 4.14779 10.4449 3.9058 9.59998 3.9058C8.76538 3.9058 8.07468 4.12856 7.52788 4.57408C6.98109 5.01958 6.59103 5.54425 6.3577 6.14808L7.64228 6.66345C7.76408 6.3314 7.97241 6.00801 8.26727 5.69328C8.56216 5.37853 8.99998 5.22115 9.58075 5.22115C10.1718 5.22115 10.6086 5.38302 10.8913 5.70675C11.174 6.03047 11.3154 6.38656 11.3154 6.77503C11.3154 7.11476 11.2186 7.42565 11.025 7.70771C10.8314 7.98976 10.5846 8.2622 10.2846 8.52503C9.6282 9.11733 9.21346 9.58976 9.04038 9.94233C8.86729 10.2949 8.78075 10.8263 8.78075 11.5365ZM9.50165 19.0019C8.18772 19.0019 6.95268 18.7526 5.79655 18.2539C4.6404 17.7552 3.63472 17.0785 2.7795 16.2237C1.92427 15.3688 1.24721 14.3636 0.748325 13.2079C0.249442 12.0523 0 10.8175 0 9.5036C0 8.18967 0.249334 6.95464 0.748 5.7985C1.24667 4.64235 1.92342 3.63667 2.77825 2.78145C3.6331 1.92622 4.63834 1.24916 5.79398 0.750279C6.94959 0.251396 8.18437 0.00195312 9.4983 0.00195312C10.8122 0.00195312 12.0473 0.251288 13.2034 0.749954C14.3596 1.24862 15.3652 1.92537 16.2205 2.7802C17.0757 3.63505 17.7527 4.6403 18.2516 5.79593C18.7505 6.95155 19 8.18632 19 9.50025C19 10.8142 18.7506 12.0492 18.252 13.2054C17.7533 14.3615 17.0765 15.3672 16.2217 16.2224C15.3669 17.0776 14.3616 17.7547 13.206 18.2536C12.0504 18.7525 10.8156 19.0019 9.50165 19.0019Z" fill="#1C1C1C"/>
</svg>
