<svg width="48" height="48" viewBox="0 0 48 48" fill="none" xmlns="http://www.w3.org/2000/svg">
<rect y="0.00012207" width="48" height="48" rx="4" fill="#A6AEAD"/>
<mask id="mask0_0_1" style="mask-type:alpha" maskUnits="userSpaceOnUse" x="10" y="8" width="32" height="33">
<rect x="10" y="8.00012" width="32" height="32" fill="#D9D9D9"/>
</mask>
<g mask="url(#mask0_0_1)">
<path d="M15.8535 34.6668C15.2901 34.6668 14.8077 34.4559 14.4065 34.0341C14.0053 33.6123 13.8047 33.1053 13.8047 32.5129V15.4873C13.8047 14.895 14.0053 14.3879 14.4065 13.9661C14.8077 13.5443 15.2901 13.3334 15.8535 13.3334H26.4876V14.6668H15.8535C15.6258 14.6668 15.4389 14.7437 15.2925 14.8975C15.1462 15.0514 15.073 15.248 15.073 15.4873V32.5129C15.073 32.7523 15.1462 32.9488 15.2925 33.1027C15.4389 33.2565 15.6258 33.3334 15.8535 33.3334H32.0486C32.2762 33.3334 32.4632 33.2565 32.6096 33.1027C32.7559 32.9488 32.8291 32.7523 32.8291 32.5129V21.3334H34.0974V32.5129C34.0974 33.1053 33.8968 33.6123 33.4956 34.0341C33.0943 34.4559 32.612 34.6668 32.0486 34.6668H15.8535ZM31.2681 18.9745V16.3078H28.7315V14.9745H31.2681V12.3078H32.5364V14.9745H35.073V16.3078H32.5364V18.9745H31.2681ZM18.2437 30.0001H29.8535L26.2681 24.9745L22.951 29.3847L20.7315 26.5642L18.2437 30.0001Z" fill="white"/>
</g>
</svg>
