<svg width="20" height="18" viewBox="0 0 20 18" fill="none" xmlns="http://www.w3.org/2000/svg">
<path d="M2.64071 17.5C2.14359 17.5 1.71803 17.3229 1.36403 16.9689C1.01002 16.6149 0.833008 16.1894 0.833008 15.6923V12.8077H19.833V15.6923C19.833 16.1894 19.656 16.6149 19.3019 16.9689C18.9479 17.3229 18.5224 17.5 18.0253 17.5H2.64071ZM10.333 10.0576C9.7394 10.0576 9.27562 10.2243 8.94163 10.5576C8.60767 10.891 8.01248 11.0576 7.15608 11.0576C6.29967 11.0576 5.7096 10.891 5.38588 10.5576C5.06217 10.2243 4.60352 10.0576 4.00993 10.0576C3.41635 10.0576 2.95257 10.2243 2.61858 10.5576C2.28462 10.891 1.68942 11.0576 0.833008 11.0576V9.55768C1.42661 9.55768 1.89039 9.39101 2.22436 9.05768C2.55834 8.72434 3.15353 8.55768 4.00993 8.55768C4.86633 8.55768 5.45639 8.72434 5.78011 9.05768C6.10383 9.39101 6.56248 9.55768 7.15608 9.55768C7.74967 9.55768 8.21344 9.39101 8.54741 9.05768C8.88139 8.72434 9.47658 8.55768 10.333 8.55768C11.1894 8.55768 11.7846 8.72434 12.1186 9.05768C12.4525 9.39101 12.9163 9.55768 13.5099 9.55768C14.1035 9.55768 14.5589 9.39101 14.8762 9.05768C15.1936 8.72434 15.7804 8.55768 16.6368 8.55768C17.4932 8.55768 18.1019 8.72434 18.4628 9.05768C18.8237 9.39101 19.2804 9.55768 19.833 9.55768V11.0576C18.9765 11.0576 18.3948 10.891 18.0878 10.5576C17.7807 10.2243 17.3304 10.0576 16.7368 10.0576C16.1432 10.0576 15.6711 10.2243 15.3205 10.5576C14.9698 10.891 14.3663 11.0576 13.5099 11.0576C12.6535 11.0576 12.0583 10.891 11.7243 10.5576C11.3904 10.2243 10.9266 10.0576 10.333 10.0576ZM0.833008 6.80765V5.99998C0.833008 4.25639 1.63301 2.90383 3.23301 1.9423C4.83299 0.980767 7.19965 0.5 10.333 0.5C13.4663 0.5 15.833 0.980767 17.433 1.9423C19.033 2.90383 19.833 4.25639 19.833 5.99998V6.80765H0.833008Z" fill="white"/>
</svg>
