<svg width="21" height="18" viewBox="0 0 21 18" fill="none" xmlns="http://www.w3.org/2000/svg">
<path d="M17.3711 9.74998H5.57695V8.25003H17.3711L15.5519 6.43078L16.6057 5.34618L20.2595 9.00001L16.6057 12.6538L15.5519 11.5692L17.3711 9.74998ZM12.2019 5.86538V2.30773C12.2019 2.21798 12.1731 2.14426 12.1154 2.08656C12.0577 2.02886 11.9839 2.00001 11.8942 2.00001H2.3077C2.21795 2.00001 2.14423 2.02886 2.08652 2.08656C2.02882 2.14426 1.99997 2.21798 1.99997 2.30773V15.6923C1.99997 15.782 2.02882 15.8558 2.08652 15.9135C2.14423 15.9712 2.21795 16 2.3077 16H11.8942C11.9839 16 12.0577 15.9712 12.1154 15.9135C12.1731 15.8558 12.2019 15.782 12.2019 15.6923V12.1346H13.7019V15.6923C13.7019 16.191 13.5253 16.617 13.1721 16.9702C12.8189 17.3234 12.3929 17.5 11.8942 17.5H2.3077C1.80898 17.5 1.38302 17.3234 1.02982 16.9702C0.676608 16.617 0.5 16.191 0.5 15.6923V2.30773C0.5 1.80902 0.676608 1.38306 1.02982 1.02986C1.38302 0.676639 1.80898 0.500031 2.3077 0.500031H11.8942C12.3929 0.500031 12.8189 0.676639 13.1721 1.02986C13.5253 1.38306 13.7019 1.80902 13.7019 2.30773V5.86538H12.2019Z" fill="white"/>
</svg>
