<svg width="36" height="36" viewBox="0 0 36 36" fill="none" xmlns="http://www.w3.org/2000/svg">
<rect x="0.5" y="0.5" width="35" height="35" rx="17.5" fill="white"/>
<rect x="0.5" y="0.5" width="35" height="35" rx="17.5" stroke="#DCDCDC"/>
<path d="M18.0003 24.5402C16.967 24.5402 16.127 25.3802 16.127 26.4068C16.127 27.4402 16.967 28.2802 18.0003 28.2802C19.0336 28.2802 19.8736 27.4402 19.8736 26.4068C19.8736 25.3802 19.0336 24.5402 18.0003 24.5402Z" fill="#202025"/>
<path d="M18.0003 20.5402C19.0349 20.5402 19.8736 19.7015 19.8736 18.6669C19.8736 17.6323 19.0349 16.7936 18.0003 16.7936C16.9657 16.7936 16.127 17.6323 16.127 18.6669C16.127 19.7015 16.9657 20.5402 18.0003 20.5402Z" fill="#202025"/>
<path d="M18.0003 9.05318C16.967 9.05318 16.127 9.89318 16.127 10.9265C16.127 11.9532 16.967 12.7932 18.0003 12.7932C19.0336 12.7932 19.8736 11.9532 19.8736 10.9265C19.8736 9.89318 19.0336 9.05318 18.0003 9.05318Z" fill="#202025"/>
</svg>
