<svg width="18" height="21" viewBox="0 0 18 21" fill="none" xmlns="http://www.w3.org/2000/svg">
<path d="M14.8997 8.30953V5.91953C14.8997 2.66953 12.2498 0.0195312 8.99976 0.0195312C5.74976 0.0195312 3.09976 2.66953 3.09976 5.91953V8.30953C1.33976 8.67953 0.00976562 10.2495 0.00976562 12.1195V16.1095C0.00976562 18.2695 1.75977 20.0195 3.91977 20.0195H14.0898C16.2398 20.0195 17.9897 18.2695 17.9897 16.1095V12.1195C17.9897 10.2495 16.6597 8.67953 14.8997 8.30953ZM9.74976 14.6995V16.1795C9.74976 16.5895 9.40976 16.9295 8.99976 16.9295C8.58976 16.9295 8.24976 16.5895 8.24976 16.1795V14.6995C7.63976 14.4095 7.21976 13.7995 7.21976 13.0895C7.21976 12.1095 8.01976 11.3095 8.99976 11.3095C9.97976 11.3095 10.7798 12.1095 10.7798 13.0895C10.7798 13.7995 10.3598 14.4095 9.74976 14.6995ZM4.59976 8.21954V5.91953C4.59976 3.48953 6.56976 1.51953 8.99976 1.51953C11.4298 1.51953 13.3997 3.48953 13.3997 5.91953V8.21954H4.59976Z" fill="black"/>
</svg>
