<svg width="14" height="14" viewBox="0 0 14 14" fill="none" xmlns="http://www.w3.org/2000/svg">
<path d="M7.22331 0.333008C3.54997 0.333008 0.556641 3.32634 0.556641 6.99967C0.556641 10.673 3.54997 13.6663 7.22331 13.6663C10.8966 13.6663 13.89 10.673 13.89 6.99967C13.89 3.32634 10.8966 0.333008 7.22331 0.333008ZM6.69663 8.37301C6.69663 8.64634 6.46997 8.87301 6.19663 8.87301C5.9233 8.87301 5.69663 8.64634 5.69663 8.37301V5.62634C5.69663 5.35301 5.9233 5.12634 6.19663 5.12634C6.46997 5.12634 6.69663 5.35301 6.69663 5.62634V8.37301ZM8.74998 8.37301C8.74998 8.64634 8.52998 8.87301 8.24998 8.87301C7.97665 8.87301 7.74998 8.64634 7.74998 8.37301V5.62634C7.74998 5.35301 7.97665 5.12634 8.24998 5.12634C8.52998 5.12634 8.74998 5.35301 8.74998 5.62634V8.37301Z" fill="#E14D4D"/>
</svg>
