<svg width="18" height="17" viewBox="0 0 18 17" fill="none" xmlns="http://www.w3.org/2000/svg">
<path d="M3.21153 16.5C2.45833 16.5 1.81811 16.2363 1.29087 15.7091C0.763625 15.1818 0.5 14.5416 0.5 13.7884V4.99035H17.5V13.7884C17.5 14.5416 17.2363 15.1818 16.7091 15.7091C16.1818 16.2363 15.5416 16.5 14.7884 16.5H3.21153ZM0.5 3.79803V2.29808H6.25V1.41348C6.25 1.15466 6.33622 0.937708 6.50865 0.762625C6.68108 0.587542 6.89773 0.5 7.1586 0.5H10.8414C11.1022 0.5 11.3189 0.587542 11.4913 0.762625C11.6637 0.937708 11.75 1.15466 11.75 1.41348V2.29808H17.5V3.79803H0.5Z" fill="white"/>
</svg>
