<svg width="20" height="20" viewBox="0 0 20 20" fill="none" xmlns="http://www.w3.org/2000/svg">
<path d="M16.48 0H3.53C1.58 0 0 1.58 0 3.53V16.47C0 18.42 1.58 20 3.53 20H16.48C18.42 20 20 18.42 20 16.47V3.53C20 1.58 18.42 0 16.48 0ZM10 17.44C6.34 17.44 3.37 14.46 3.37 10.8C3.37 8.47999 4.54999 6.36999 6.51999 5.14999C6.86999 4.93999 7.32999 5.04999 7.54999 5.39999C7.76999 5.74999 7.66 6.20999 7.31 6.42999C5.78 7.36999 4.87 9.00999 4.87 10.8C4.87 13.63 7.17 15.94 10 15.94C12.83 15.94 15.14 13.63 15.14 10.8C15.14 9.00999 14.22 7.36999 12.69 6.42999C12.34 6.20999 12.23 5.74999 12.45 5.39999C12.67 5.03999 13.13 4.93999 13.48 5.14999C15.46 6.36999 16.64 8.47999 16.64 10.8C16.64 14.46 13.66 17.44 10 17.44ZM10.75 3.31V7.23999C10.75 7.64999 10.41 7.98999 10 7.98999C9.59 7.98999 9.25 7.64999 9.25 7.23999V3.31C9.25 2.9 9.59 2.56 10 2.56C10.41 2.56 10.75 2.9 10.75 3.31Z" fill="white"/>
</svg>
