<?xml version="1.0" encoding="UTF-8"?><svg id="Camada_1" xmlns="http://www.w3.org/2000/svg" viewBox="0 0 1080 1080"><defs><style>.cls-1,.cls-2{stroke-width:0px;}.cls-2{fill:#18e21c;}</style></defs><rect class="cls-2" x="0" y="0" width="1080" height="1080"/><path class="cls-1" d="M311.54,616.15h0c-50.4,0-91.26-40.86-91.26-91.26v-122.1c0-50.4,40.86-91.26,91.26-91.26h91.26v213.35c0,50.4-40.86,91.26-91.26,91.26Z"/><path class="cls-1" d="M616.15,768.46h0c0,50.4-40.86,91.26-91.26,91.26h-122.1c-50.4,0-91.26-40.86-91.26-91.26v-91.26h213.36c50.4,0,91.26,40.86,91.26,91.26Z"/><path class="cls-1" d="M463.85,311.54h0c0-50.4,40.86-91.26,91.26-91.26h122.1c50.4,0,91.26,40.86,91.26,91.26v91.26h-213.36c-50.4,0-91.26-40.86-91.26-91.26Z"/><path class="cls-1" d="M768.46,463.85h0c50.4,0,91.26,40.86,91.26,91.26v122.1c0,50.4-40.86,91.26-91.26,91.26h-91.26v-213.35c0-50.4,40.86-91.26,91.26-91.26Z"/><rect class="cls-1" x="463.85" y="463.85" width="152.31" height="152.31"/></svg>