<svg width="16" height="17" viewBox="0 0 16 17" fill="none" xmlns="http://www.w3.org/2000/svg">
<path d="M4.04427 9.12543H11.9609V7.87547H4.04427V9.12543ZM8.00398 16.4171C6.90903 16.4171 5.87984 16.2093 4.9164 15.7938C3.95294 15.3782 3.11487 14.8142 2.40219 14.1019C1.68949 13.3895 1.12528 12.5518 0.709542 11.5888C0.293806 10.6258 0.0859375 9.59679 0.0859375 8.50184C0.0859375 7.4069 0.293715 6.3777 0.709271 5.41426C1.12483 4.4508 1.68878 3.61273 2.40115 2.90005C3.11352 2.18736 3.95122 1.62314 4.91425 1.20741C5.87726 0.79167 6.90624 0.583801 8.00119 0.583801C9.09613 0.583801 10.1253 0.79158 11.0888 1.20714C12.0522 1.62269 12.8903 2.18665 13.603 2.89901C14.3157 3.61139 14.8799 4.44909 15.2956 5.41212C15.7114 6.37513 15.9192 7.40411 15.9192 8.49905C15.9192 9.594 15.7115 10.6232 15.2959 11.5866C14.8803 12.5501 14.3164 13.3882 13.604 14.1008C12.8916 14.8135 12.0539 15.3778 11.0909 15.7935C10.1279 16.2092 9.09892 16.4171 8.00398 16.4171Z" fill="#DCDCDC"/>
</svg>
