<svg width="16" height="17" viewBox="0 0 16 17" fill="none" xmlns="http://www.w3.org/2000/svg">
<path d="M3.95751 9.12484H11.8725V7.87514H3.95751V9.12484ZM7.91639 16.415C6.82168 16.415 5.7927 16.2073 4.82945 15.7918C3.8662 15.3763 3.0283 14.8125 2.31577 14.1003C1.60322 13.388 1.03912 12.5505 0.623475 11.5877C0.207825 10.6249 0 9.5961 0 8.50139C0 7.40667 0.207735 6.37769 0.623204 5.41445C1.03867 4.45119 1.60251 3.61329 2.31473 2.90076C3.02695 2.18821 3.86448 1.62412 4.82731 1.20847C5.79012 0.792817 6.81889 0.584991 7.9136 0.584991C9.00832 0.584991 10.0373 0.792727 11.0005 1.2082C11.9638 1.62367 12.8017 2.18751 13.5142 2.89972C14.2268 3.61195 14.7909 4.44947 15.2065 5.4123C15.6222 6.37511 15.83 7.40388 15.83 8.4986C15.83 9.59331 15.6223 10.6223 15.2068 11.5855C14.7913 12.5488 14.2275 13.3867 13.5153 14.0992C12.803 14.8118 11.9655 15.3759 11.0027 15.7915C10.0399 16.2072 9.01111 16.415 7.91639 16.415Z" fill="#E14D4D"/>
</svg>
