<svg width="18" height="16" viewBox="0 0 18 16" fill="none" xmlns="http://www.w3.org/2000/svg">
<path d="M7.74983 15.9167V14.6667H17.7498V15.9167H7.74983ZM8.58316 13.6731C8.58316 12.6283 8.91997 11.7191 9.59358 10.9456C10.2672 10.1721 11.1109 9.71214 12.1248 9.56578V9.13309C12.1248 8.96108 12.1847 8.81391 12.3043 8.69159C12.424 8.56926 12.5725 8.50809 12.7498 8.50809C12.9218 8.50809 13.069 8.56926 13.1913 8.69159C13.3136 8.81391 13.3748 8.96108 13.3748 9.13309V9.56578C14.3801 9.71214 15.2217 10.1721 15.8996 10.9456C16.5775 11.7191 16.9165 12.6283 16.9165 13.6731H8.58316ZM0.265869 8.38463H3.18249V0.403946H0.265869V8.38463ZM4.43247 8.38463H6.24658L11.9212 6.28528C12.1413 6.19874 12.3184 6.05852 12.4525 5.86461C12.5866 5.6707 12.6536 5.45515 12.6536 5.21799V5.20997C12.6536 5.01445 12.5852 4.84832 12.4485 4.71157C12.3117 4.57482 12.1456 4.50645 11.9501 4.50645H9.73697L7.92606 5.17311L7.65041 4.4744L9.72095 3.76928H15.2498C15.6515 3.76928 16.0056 3.62825 16.3123 3.3462C16.6189 3.06415 16.7722 2.71373 16.7722 2.29492L10.5222 0.0673828L4.43247 1.80457V8.38463Z" fill="#202025"/>
</svg>
