<svg width="20" height="19" viewBox="0 0 20 19" fill="none" xmlns="http://www.w3.org/2000/svg">
<path d="M10.0002 18.8333C8.44461 18.8333 7.01405 18.4792 5.7085 17.7708C4.40294 17.0625 3.3335 16.1181 2.50016 14.9375V17.1667H0.833496V12.1667H5.8335V13.8333H3.771C4.43766 14.8333 5.31614 15.6389 6.40641 16.25C7.49669 16.8611 8.69461 17.1667 10.0002 17.1667C11.0418 17.1667 12.0175 16.9688 12.9272 16.5729C13.837 16.1771 14.6286 15.6424 15.3022 14.9688C15.9759 14.2951 16.5106 13.5035 16.9064 12.5938C17.3022 11.684 17.5002 10.7083 17.5002 9.66667H19.1668C19.1668 10.9306 18.9272 12.1181 18.4481 13.2292C17.9689 14.3403 17.3127 15.3125 16.4793 16.1458C15.646 16.9792 14.6738 17.6354 13.5627 18.1146C12.4516 18.5938 11.2641 18.8333 10.0002 18.8333ZM9.25016 15.5V14.4167C8.59739 14.2639 8.06614 13.9826 7.65641 13.5729C7.24669 13.1632 6.94461 12.625 6.75016 11.9583L8.12516 11.4167C8.29183 11.9861 8.55225 12.4132 8.90641 12.6979C9.26058 12.9826 9.66683 13.125 10.1252 13.125C10.5835 13.125 10.9759 13.0174 11.3022 12.8021C11.6286 12.5868 11.7918 12.25 11.7918 11.7917C11.7918 11.3889 11.6217 11.0625 11.2814 10.8125C10.9411 10.5625 10.3335 10.2778 9.4585 9.95833C8.63905 9.66667 8.03836 9.31945 7.65641 8.91667C7.27447 8.51389 7.0835 7.98611 7.0835 7.33333C7.0835 6.76389 7.28141 6.24653 7.67725 5.78125C8.07308 5.31597 8.61128 5.01389 9.29183 4.875V3.83333H10.7502V4.875C11.2502 4.91667 11.705 5.11806 12.1147 5.47917C12.5245 5.84028 12.8057 6.26389 12.9585 6.75L11.6252 7.29167C11.5141 6.97222 11.3335 6.70486 11.0835 6.48958C10.8335 6.27431 10.4863 6.16667 10.0418 6.16667C9.55572 6.16667 9.18419 6.27083 8.92725 6.47917C8.6703 6.6875 8.54183 6.97222 8.54183 7.33333C8.54183 7.69445 8.70155 7.97917 9.021 8.1875C9.34044 8.39583 9.91683 8.63889 10.7502 8.91667C11.7502 9.27778 12.4168 9.70139 12.7502 10.1875C13.0835 10.6736 13.2502 11.2083 13.2502 11.7917C13.2502 12.1944 13.1807 12.5486 13.0418 12.8542C12.9029 13.1597 12.7189 13.4201 12.4897 13.6354C12.2606 13.8507 11.9932 14.0243 11.6877 14.1563C11.3821 14.2882 11.0557 14.3889 10.7085 14.4583V15.5H9.25016ZM0.833496 9.66667C0.833496 8.40278 1.07308 7.21528 1.55225 6.10417C2.03141 4.99306 2.68766 4.02083 3.521 3.1875C4.35433 2.35417 5.32655 1.69792 6.43766 1.21875C7.54877 0.739583 8.73627 0.5 10.0002 0.5C11.5557 0.5 12.9863 0.854167 14.2918 1.5625C15.5974 2.27083 16.6668 3.21528 17.5002 4.39583V2.16667H19.1668V7.16667H14.1668V5.5H16.2293C15.5627 4.5 14.6842 3.69444 13.5939 3.08333C12.5036 2.47222 11.3057 2.16667 10.0002 2.16667C8.9585 2.16667 7.9828 2.36458 7.07308 2.76042C6.16336 3.15625 5.37169 3.69097 4.69808 4.36458C4.02447 5.0382 3.48975 5.82986 3.09391 6.73958C2.69808 7.64931 2.50016 8.625 2.50016 9.66667H0.833496Z" fill="#202025"/>
</svg>
