<svg width="18" height="18" viewBox="0 0 18 18" fill="none" xmlns="http://www.w3.org/2000/svg">
<path d="M16.946 17.5961L10.6653 11.3153C10.1653 11.7281 9.59027 12.0512 8.94027 12.2845C8.29027 12.5178 7.61783 12.6345 6.92297 12.6345C5.2138 12.6345 3.76728 12.0427 2.58342 10.8592C1.39955 9.67559 0.807617 8.22945 0.807617 6.52073C0.807617 4.812 1.3994 3.36533 2.58297 2.18071C3.76653 0.996108 5.21268 0.403809 6.92142 0.403809C8.63013 0.403809 10.0768 0.995743 11.2614 2.17961C12.446 3.36348 13.0383 4.80999 13.0383 6.51916C13.0383 7.23326 12.9185 7.91531 12.6787 8.56531C12.439 9.21531 12.1191 9.78069 11.7191 10.2615L17.9999 16.5422L16.946 17.5961ZM6.92297 11.1346C8.21143 11.1346 9.30278 10.6874 10.197 9.79321C11.0913 8.89898 11.5384 7.80763 11.5384 6.51916C11.5384 5.23069 11.0913 4.13934 10.197 3.24511C9.30278 2.35088 8.21143 1.90376 6.92297 1.90376C5.6345 1.90376 4.54315 2.35088 3.64892 3.24511C2.7547 4.13934 2.30759 5.23069 2.30759 6.51916C2.30759 7.80763 2.7547 8.89898 3.64892 9.79321C4.54315 10.6874 5.6345 11.1346 6.92297 11.1346Z" fill="#202025"/>
</svg>
