<svg width="24" height="24" viewBox="0 0 24 24" fill="none" xmlns="http://www.w3.org/2000/svg">
<path d="M22 12C22 12.41 21.66 12.75 21.25 12.75H9.54999C9.21999 13.92 8.14999 14.79 6.85999 14.79C5.57999 14.79 4.50001 13.92 4.17001 12.75H2.75C2.34 12.75 2 12.41 2 12C2 11.59 2.34 11.25 2.75 11.25H4.17001C4.50001 10.08 5.57999 9.20996 6.85999 9.20996C8.14999 9.20996 9.21999 10.08 9.54999 11.25H21.25C21.66 11.25 22 11.59 22 12Z" fill="#FEFEFF"/>
<path d="M22 19.1504C22 19.5704 21.66 19.9004 21.25 19.9004H19.83C19.5 21.0804 18.42 21.9404 17.14 21.9404C15.86 21.9404 14.78 21.0804 14.45 19.9004H2.75C2.34 19.9004 2 19.5704 2 19.1504C2 18.7404 2.34 18.4004 2.75 18.4004H14.45C14.78 17.2304 15.86 16.3604 17.14 16.3604C18.42 16.3604 19.5 17.2304 19.83 18.4004H21.25C21.66 18.4004 22 18.7404 22 19.1504Z" fill="#FEFEFF"/>
<path d="M22 4.84957C22 5.25957 21.66 5.59957 21.25 5.59957H19.83C19.5 6.76957 18.42 7.63957 17.14 7.63957C15.86 7.63957 14.78 6.76957 14.45 5.59957H2.75C2.34 5.59957 2 5.25957 2 4.84957C2 4.42957 2.34 4.09957 2.75 4.09957H14.45C14.78 2.91957 15.86 2.05957 17.14 2.05957C18.42 2.05957 19.5 2.91957 19.83 4.09957H21.25C21.66 4.09957 22 4.42957 22 4.84957Z" fill="#FEFEFF"/>
</svg>
