<svg width="13" height="12" viewBox="0 0 13 12" fill="none" xmlns="http://www.w3.org/2000/svg">
<path d="M12.1994 5.08246C12.4652 4.83062 12.3113 4.3689 11.9475 4.32693L8.5757 3.83724C8.43579 3.80925 8.30988 3.72532 8.23993 3.58541L6.72887 0.52137C6.56098 0.185585 6.08532 0.185585 5.93142 0.52137L4.42036 3.58541C4.35041 3.71133 4.2245 3.80925 4.08459 3.83724L0.712752 4.32693C0.348985 4.38289 0.209085 4.83062 0.460923 5.08246L2.90935 7.4609C3.02128 7.57283 3.06325 7.71274 3.03527 7.85265L2.46163 11.2105C2.39167 11.5743 2.78341 11.8541 3.1052 11.6722L6.12727 10.0912C6.25319 10.0213 6.42111 10.0213 6.54703 10.0912L9.56905 11.6722C9.89084 11.8401 10.2826 11.5603 10.2127 11.2105L9.63903 7.85265C9.61105 7.71274 9.66701 7.55884 9.76495 7.4609L12.1994 5.08246Z" fill="#77797B"/>
</svg>
