<svg width="20" height="18" viewBox="0 0 20 18" fill="none" xmlns="http://www.w3.org/2000/svg">
<path d="M18.7655 7.97305V15.9423C18.7655 16.4474 18.5905 16.875 18.2405 17.225C17.8905 17.575 17.4629 17.75 16.9578 17.75H3.07316C2.56804 17.75 2.14048 17.575 1.79048 17.225C1.44048 16.875 1.26548 16.4474 1.26548 15.9423V7.95383C0.862913 7.62304 0.560663 7.19388 0.35873 6.66633C0.156813 6.13876 0.152647 5.56921 0.34623 4.95768L1.35778 1.65383C1.49111 1.23333 1.7174 0.894225 2.03663 0.636525C2.35586 0.378842 2.73727 0.25 3.18086 0.25H16.8308C17.2744 0.25 17.6533 0.373076 17.9674 0.619226C18.2815 0.865376 18.5103 1.20383 18.6539 1.6346L19.6847 4.95768C19.8783 5.56921 19.8741 6.13683 19.6722 6.66055C19.4703 7.18427 19.168 7.62177 18.7655 7.97305ZM12.2155 7.25C12.7616 7.25 13.1722 7.08301 13.4472 6.74903C13.7222 6.41506 13.8347 6.05641 13.7847 5.67308L13.177 1.74995H10.7655V5.69998C10.7655 6.12049 10.9078 6.48396 11.1924 6.79038C11.477 7.09679 11.818 7.25 12.2155 7.25ZM7.71546 7.25C8.17572 7.25 8.54913 7.09679 8.83568 6.79038C9.12221 6.48396 9.26548 6.12049 9.26548 5.69998V1.74995H6.85391L6.2462 5.71153C6.19237 6.06666 6.30391 6.41185 6.58083 6.7471C6.85776 7.08237 7.23597 7.25 7.71546 7.25ZM3.26546 7.25C3.63597 7.25 3.95457 7.12083 4.22125 6.8625C4.48792 6.60415 4.65266 6.27947 4.71548 5.88845L5.30395 1.74995H3.18086C3.07187 1.74995 2.98533 1.77399 2.92123 1.82208C2.85711 1.87016 2.80903 1.94228 2.77698 2.03845L1.81546 5.29228C1.68339 5.72178 1.74556 6.15544 2.00198 6.59325C2.2584 7.03109 2.67955 7.25 3.26546 7.25ZM16.7655 7.25C17.3065 7.25 17.7206 7.0375 18.0078 6.6125C18.295 6.18748 18.3642 5.74741 18.2155 5.29228L17.204 2.0192C17.1719 1.92305 17.1238 1.85413 17.0597 1.81245C16.9956 1.77078 16.9091 1.74995 16.8001 1.74995H14.727L15.3155 5.88845C15.3783 6.27947 15.543 6.60415 15.8097 6.8625C16.0763 7.12083 16.3949 7.25 16.7655 7.25Z" fill="white"/>
</svg>
