<svg width="18" height="18" viewBox="0 0 18 18" fill="none" xmlns="http://www.w3.org/2000/svg">
<path d="M2.3077 17.5C1.80257 17.5 1.375 17.325 1.025 16.975C0.675 16.625 0.5 16.1974 0.5 15.6923V2.3077C0.5 1.80257 0.675 1.375 1.025 1.025C1.375 0.675 1.80257 0.5 2.3077 0.5H12.7884L17.5 5.21153V15.6923C17.5 16.1974 17.325 16.625 16.975 16.975C16.625 17.325 16.1974 17.5 15.6923 17.5H2.3077ZM4.99998 13.9038C5.25126 13.9038 5.46472 13.816 5.64035 13.6404C5.816 13.4647 5.90383 13.2513 5.90383 13C5.90383 12.7487 5.816 12.5352 5.64035 12.3596C5.46472 12.184 5.25126 12.0961 4.99998 12.0961C4.74869 12.0961 4.53523 12.184 4.3596 12.3596C4.18395 12.5352 4.09613 12.7487 4.09613 13C4.09613 13.2513 4.18395 13.4647 4.3596 13.6404C4.53523 13.816 4.74869 13.9038 4.99998 13.9038ZM4.99998 9.90383C5.25126 9.90383 5.46472 9.816 5.64035 9.64035C5.816 9.46472 5.90383 9.25126 5.90383 8.99998C5.90383 8.74869 5.816 8.53523 5.64035 8.3596C5.46472 8.18395 5.25126 8.09613 4.99998 8.09613C4.74869 8.09613 4.53523 8.18395 4.3596 8.3596C4.18395 8.53523 4.09613 8.74869 4.09613 8.99998C4.09613 9.25126 4.18395 9.46472 4.3596 9.64035C4.53523 9.816 4.74869 9.90383 4.99998 9.90383ZM4.99998 5.90383C5.25126 5.90383 5.46472 5.816 5.64035 5.64035C5.816 5.46472 5.90383 5.25126 5.90383 4.99998C5.90383 4.74869 5.816 4.53523 5.64035 4.3596C5.46472 4.18395 5.25126 4.09613 4.99998 4.09613C4.74869 4.09613 4.53523 4.18395 4.3596 4.3596C4.18395 4.53523 4.09613 4.74869 4.09613 4.99998C4.09613 5.25126 4.18395 5.46472 4.3596 5.64035C4.53523 5.816 4.74869 5.90383 4.99998 5.90383ZM12 5.99998H16L12 1.99998V5.99998Z" fill="white"/>
</svg>
