<svg width="16" height="20" viewBox="0 0 16 20" fill="none" xmlns="http://www.w3.org/2000/svg">
<path d="M15.1906 0H0.810547C0.390547 0 0.0605469 0.34 0.0605469 0.75C0.0605469 1.16 0.390547 1.5 0.810547 1.5H2.44055C2.24055 1.89 2.11055 2.31999 2.11055 2.78999V3.98C2.11055 4.72 2.40055 5.43 2.94055 5.95L4.13055 7.13L4.89055 7.88L6.02055 9.00999C6.57055 9.54999 7.28055 9.82001 8.00055 9.82001C8.72055 9.82001 9.44055 9.54999 9.98055 9.00999L10.3605 8.63L11.8806 7.13L13.0706 5.95C13.6006 5.42 13.8906 4.72 13.8906 3.98V2.78999C13.8906 2.31999 13.7605 1.89 13.5605 1.5H15.1906C15.6106 1.5 15.9406 1.16 15.9406 0.75C15.9406 0.34 15.6106 0 15.1906 0ZM8.99055 7.88L8.93054 7.94C8.42054 8.45 7.59055 8.45 7.08055 7.94L7.02055 7.88L6.26054 7.13H9.75055L8.99055 7.88Z" fill="#18E21C"/>
<path d="M15.9305 19.2C15.9105 18.81 15.5906 18.5 15.1906 18.5H13.5605C13.7705 18.11 13.8906 17.66 13.8906 17.19V15.99C13.8906 15.25 13.5906 14.53 13.0706 14.01L9.98055 10.92C8.89055 9.83004 7.11055 9.83004 6.02055 10.92L2.93054 14.01C2.41054 14.53 2.11055 15.25 2.11055 15.99V17.19C2.11055 17.66 2.23055 18.11 2.44055 18.5H0.810547C0.410547 18.5 0.0905566 18.81 0.0705566 19.2C0.0605566 19.22 0.0605469 19.23 0.0605469 19.25C0.0605469 19.66 0.390547 20 0.810547 20H4.92055H11.0806H15.1906C15.6106 20 15.9406 19.66 15.9406 19.25C15.9406 19.23 15.9405 19.22 15.9305 19.2ZM7.31055 13.82C7.35055 13.73 7.40055 13.65 7.47055 13.58C7.67055 13.37 8.01054 13.31 8.29054 13.42C8.38054 13.46 8.46055 13.51 8.53055 13.58C8.60055 13.65 8.65055 13.73 8.69055 13.82C8.73055 13.92 8.75055 14.01 8.75055 14.11C8.75055 14.31 8.67055 14.5 8.53055 14.64C8.39055 14.78 8.20055 14.86 8.00055 14.86C7.80055 14.86 7.61055 14.78 7.47055 14.64C7.33055 14.5 7.25055 14.31 7.25055 14.11C7.25055 14.01 7.27055 13.92 7.31055 13.82ZM4.92055 18.5C4.20055 18.5 3.61055 17.91 3.61055 17.19H12.3906C12.3906 17.91 11.8006 18.5 11.0806 18.5H4.92055Z" fill="#18E21C"/>
</svg>
